<svg width="98" height="16" viewBox="0 0 98 16" fill="none" xmlns="http://www.w3.org/2000/svg">
<path d="M0.48 15V0.799999H3.24V15H0.48ZM15.6827 15H13.0027V9.12C13.0027 8.28 12.856 7.66667 12.5627 7.28C12.2693 6.89333 11.8627 6.7 11.3427 6.7C10.9827 6.7 10.616 6.79333 10.2427 6.98C9.88266 7.16667 9.55599 7.42667 9.26266 7.76C8.96932 8.08 8.75599 8.45333 8.62266 8.88V15H5.94266V4.52H8.36266V6.46C8.74932 5.80667 9.30932 5.29333 10.0427 4.92C10.776 4.53333 11.6027 4.34 12.5227 4.34C13.176 4.34 13.7093 4.46 14.1227 4.7C14.536 4.92667 14.856 5.24 15.0827 5.64C15.3093 6.02667 15.4627 6.46667 15.5427 6.96C15.636 7.45333 15.6827 7.95333 15.6827 8.46V15ZM25.173 15L22.113 10.48L20.693 11.88V15H18.013V0.4H20.693V9.24L24.913 4.54H27.753L23.853 8.98L28.033 15H25.173ZM29.1053 15V12.12H31.3053V15H29.1053ZM50.6622 0.799999V15H47.9222V8.94H41.4822V15H38.7222V0.799999H41.4822V6.54H47.9222V0.799999H50.6622ZM58.0288 15.2C56.8821 15.2 55.8954 14.9533 55.0688 14.46C54.2554 13.9533 53.6288 13.2867 53.1888 12.46C52.7488 11.6333 52.5288 10.74 52.5288 9.78C52.5288 8.80667 52.7488 7.90667 53.1888 7.08C53.6421 6.25333 54.2754 5.59333 55.0888 5.1C55.9154 4.59333 56.8954 4.34 58.0288 4.34C59.1621 4.34 60.1354 4.59333 60.9488 5.1C61.7754 5.59333 62.4088 6.25333 62.8488 7.08C63.2888 7.90667 63.5088 8.80667 63.5088 9.78C63.5088 10.74 63.2888 11.6333 62.8488 12.46C62.4088 13.2867 61.7754 13.9533 60.9488 14.46C60.1354 14.9533 59.1621 15.2 58.0288 15.2ZM55.2888 9.78C55.2888 10.3933 55.4088 10.94 55.6488 11.42C55.8888 11.8867 56.2154 12.2533 56.6288 12.52C57.0421 12.7867 57.5088 12.92 58.0288 12.92C58.5354 12.92 58.9954 12.7867 59.4088 12.52C59.8221 12.24 60.1488 11.8667 60.3888 11.4C60.6421 10.92 60.7688 10.3733 60.7688 9.76C60.7688 9.16 60.6421 8.62667 60.3888 8.16C60.1488 7.68 59.8221 7.30667 59.4088 7.04C58.9954 6.76 58.5354 6.62 58.0288 6.62C57.5088 6.62 57.0421 6.76 56.6288 7.04C56.2154 7.30667 55.8888 7.68 55.6488 8.16C55.4088 8.62667 55.2888 9.16667 55.2888 9.78ZM65.2177 11.08V4.52H67.8977V10.5C67.8977 12.1133 68.4777 12.92 69.6377 12.92C70.1577 12.92 70.6577 12.7667 71.1377 12.46C71.631 12.14 72.031 11.66 72.3377 11.02V4.52H75.0177V12C75.0177 12.2933 75.0643 12.5 75.1577 12.62C75.251 12.7267 75.4177 12.7933 75.6577 12.82V15C75.391 15.0533 75.1643 15.0867 74.9777 15.1C74.8043 15.1133 74.6443 15.12 74.4977 15.12C74.0177 15.12 73.6243 15.0133 73.3177 14.8C73.0243 14.5733 72.851 14.2667 72.7977 13.88L72.7377 13.04C72.271 13.76 71.671 14.3 70.9377 14.66C70.2043 15.02 69.3977 15.2 68.5177 15.2C67.4377 15.2 66.6177 14.8533 66.0577 14.16C65.4977 13.4533 65.2177 12.4267 65.2177 11.08ZM81.5409 15.2C80.6476 15.2 79.7943 15.0533 78.9809 14.76C78.1676 14.4667 77.4676 14.0333 76.8809 13.46L77.8409 11.72C78.4676 12.2267 79.0809 12.6 79.6809 12.84C80.2809 13.08 80.8676 13.2 81.4409 13.2C81.9609 13.2 82.3743 13.1067 82.6809 12.92C83.0009 12.7333 83.1609 12.4533 83.1609 12.08C83.1609 11.6933 82.9676 11.4333 82.5809 11.3C82.1943 11.1533 81.6543 10.9733 80.9609 10.76C80.1876 10.52 79.5409 10.2733 79.0209 10.02C78.5009 9.76667 78.1076 9.46 77.8409 9.1C77.5876 8.74 77.4609 8.27333 77.4609 7.7C77.4609 6.67333 77.8476 5.85333 78.6209 5.24C79.3943 4.62667 80.4209 4.32 81.7009 4.32C82.4476 4.32 83.1543 4.44 83.8209 4.68C84.4876 4.90667 85.0943 5.28 85.6409 5.8L84.5609 7.5C83.5343 6.7 82.5409 6.3 81.5809 6.3C81.1543 6.3 80.7743 6.38 80.4409 6.54C80.1209 6.7 79.9609 6.98 79.9609 7.38C79.9609 7.75333 80.1143 8.02 80.4209 8.18C80.7409 8.34 81.2209 8.51333 81.8609 8.7C82.6876 8.95333 83.3876 9.2 83.9609 9.44C84.5476 9.68 84.9876 9.98667 85.2809 10.36C85.5876 10.7333 85.7409 11.24 85.7409 11.88C85.7409 12.92 85.3609 13.7333 84.6009 14.32C83.8409 14.9067 82.8209 15.2 81.5409 15.2ZM92.4238 15.2C91.2904 15.2 90.3104 14.9533 89.4838 14.46C88.6704 13.9667 88.0371 13.3133 87.5838 12.5C87.1304 11.6733 86.9038 10.78 86.9038 9.82C86.9038 8.83333 87.1238 7.92667 87.5638 7.1C88.0171 6.26 88.6571 5.59333 89.4838 5.1C90.3104 4.59333 91.2971 4.34 92.4438 4.34C93.5904 4.34 94.5704 4.59333 95.3838 5.1C96.1971 5.59333 96.8171 6.25333 97.2438 7.08C97.6838 7.89333 97.9038 8.77333 97.9038 9.72C97.9038 10.0667 97.8838 10.3667 97.8438 10.62H89.7438C89.8104 11.4333 90.1104 12.0733 90.6438 12.54C91.1904 13.0067 91.8171 13.24 92.5238 13.24C93.0571 13.24 93.5571 13.1133 94.0238 12.86C94.5038 12.5933 94.8304 12.2467 95.0038 11.82L97.3038 12.46C96.9171 13.26 96.2971 13.92 95.4438 14.44C94.5904 14.9467 93.5838 15.2 92.4238 15.2ZM89.6838 8.92H95.1638C95.0838 8.13333 94.7838 7.5 94.2638 7.02C93.7571 6.52667 93.1371 6.28 92.4038 6.28C91.6838 6.28 91.0638 6.52667 90.5438 7.02C90.0371 7.5 89.7504 8.13333 89.6838 8.92Z" fill="#598D66"/>
</svg>
